<mxfile host="app.diagrams.net" modified="2023-05-07T23:38:13.894Z" agent="Mozilla/5.0 (Windows NT 10.0; Win64; x64) AppleWebKit/537.36 (KHTML, like Gecko) Chrome/112.0.0.0 Safari/537.36" etag="-CMAQA-m4t-TcnIJAaPt" version="21.2.9" type="device">
  <diagram name="Page-1" id="0aiQ6ex3RMSGMbCF1up-">
    <mxGraphModel dx="1400" dy="1832" grid="1" gridSize="10" guides="1" tooltips="1" connect="1" arrows="1" fold="1" page="1" pageScale="1" pageWidth="850" pageHeight="1100" math="0" shadow="0">
      <root>
        <mxCell id="0" />
        <mxCell id="1" parent="0" />
        <mxCell id="3N1-fSCp5UbAsF8w0CKT-1" value="Ξεναγός&lt;br&gt;" style="shape=umlActor;verticalLabelPosition=bottom;verticalAlign=top;html=1;" parent="1" vertex="1">
          <mxGeometry x="40" y="240" width="40" height="80" as="geometry" />
        </mxCell>
        <mxCell id="3N1-fSCp5UbAsF8w0CKT-2" value="Φόρμα δημιουργίας Quiz" style="shape=umlBoundary;whiteSpace=wrap;html=1;" parent="1" vertex="1">
          <mxGeometry x="230" y="105" width="100" height="80" as="geometry" />
        </mxCell>
        <mxCell id="3N1-fSCp5UbAsF8w0CKT-6" value="Συμπληρώθηκαν όλες οι πληροφορίες;" style="ellipse;shape=umlControl;whiteSpace=wrap;html=1;" parent="1" vertex="1">
          <mxGeometry x="662.5" y="65" width="100" height="100" as="geometry" />
        </mxCell>
        <mxCell id="3N1-fSCp5UbAsF8w0CKT-17" value="Συμπληρώνει στοιχεία quiz και επιβεβαιώνει" style="text;html=1;strokeColor=none;fillColor=none;align=center;verticalAlign=middle;whiteSpace=wrap;rounded=0;rotation=-20;" parent="1" vertex="1">
          <mxGeometry x="152" y="157" width="60" height="30" as="geometry" />
        </mxCell>
        <mxCell id="3N1-fSCp5UbAsF8w0CKT-21" value="Εμφάνισε" style="ellipse;shape=umlControl;whiteSpace=wrap;html=1;" parent="1" vertex="1">
          <mxGeometry x="540" y="200" width="60" height="70" as="geometry" />
        </mxCell>
        <mxCell id="3N1-fSCp5UbAsF8w0CKT-23" value="Ναί" style="text;html=1;strokeColor=none;fillColor=none;align=center;verticalAlign=middle;whiteSpace=wrap;rounded=0;rotation=-30;" parent="1" vertex="1">
          <mxGeometry x="620" y="180" width="60" height="30" as="geometry" />
        </mxCell>
        <mxCell id="3N1-fSCp5UbAsF8w0CKT-24" value="Οθόνη υποβολής αρχείων" style="shape=umlBoundary;whiteSpace=wrap;html=1;" parent="1" vertex="1">
          <mxGeometry x="295" y="260" width="90" height="70" as="geometry" />
        </mxCell>
        <mxCell id="3N1-fSCp5UbAsF8w0CKT-25" value="" style="endArrow=classic;html=1;rounded=0;exitX=0.147;exitY=0.883;exitDx=0;exitDy=0;exitPerimeter=0;entryX=0.961;entryY=0.227;entryDx=0;entryDy=0;entryPerimeter=0;" parent="1" source="3N1-fSCp5UbAsF8w0CKT-21" target="3N1-fSCp5UbAsF8w0CKT-24" edge="1">
          <mxGeometry width="50" height="50" relative="1" as="geometry">
            <mxPoint x="400" y="230" as="sourcePoint" />
            <mxPoint x="450" y="180" as="targetPoint" />
          </mxGeometry>
        </mxCell>
        <mxCell id="3N1-fSCp5UbAsF8w0CKT-26" value="" style="endArrow=classic;html=1;rounded=0;exitX=1;exitY=0.3333333333333333;exitDx=0;exitDy=0;exitPerimeter=0;entryX=0.013;entryY=0.614;entryDx=0;entryDy=0;entryPerimeter=0;" parent="1" source="3N1-fSCp5UbAsF8w0CKT-1" target="3N1-fSCp5UbAsF8w0CKT-24" edge="1">
          <mxGeometry width="50" height="50" relative="1" as="geometry">
            <mxPoint x="400" y="230" as="sourcePoint" />
            <mxPoint x="450" y="180" as="targetPoint" />
          </mxGeometry>
        </mxCell>
        <mxCell id="3N1-fSCp5UbAsF8w0CKT-27" value="Υποβάλλει αρχεία και επιβεβαιώνει" style="text;html=1;strokeColor=none;fillColor=none;align=center;verticalAlign=middle;whiteSpace=wrap;rounded=0;rotation=10;" parent="1" vertex="1">
          <mxGeometry x="203" y="252" width="60" height="30" as="geometry" />
        </mxCell>
        <mxCell id="3N1-fSCp5UbAsF8w0CKT-28" value="Τα αρχεία έχουν επιτρεπτό μέγεθος;" style="ellipse;shape=umlControl;whiteSpace=wrap;html=1;" parent="1" vertex="1">
          <mxGeometry x="485" y="362.5" width="80" height="85" as="geometry" />
        </mxCell>
        <mxCell id="3N1-fSCp5UbAsF8w0CKT-29" value="" style="endArrow=classic;html=1;rounded=0;exitX=0.747;exitY=1.025;exitDx=0;exitDy=0;exitPerimeter=0;" parent="1" source="3N1-fSCp5UbAsF8w0CKT-24" target="3N1-fSCp5UbAsF8w0CKT-28" edge="1">
          <mxGeometry width="50" height="50" relative="1" as="geometry">
            <mxPoint x="400" y="230" as="sourcePoint" />
            <mxPoint x="405.4000000000001" y="394.24000000000024" as="targetPoint" />
            <Array as="points" />
          </mxGeometry>
        </mxCell>
        <mxCell id="3N1-fSCp5UbAsF8w0CKT-30" value="Αρχεία χειριστή" style="ellipse;shape=umlEntity;whiteSpace=wrap;html=1;" parent="1" vertex="1">
          <mxGeometry x="600" y="490" width="60" height="60" as="geometry" />
        </mxCell>
        <mxCell id="3N1-fSCp5UbAsF8w0CKT-32" value="Εμφάνισε" style="ellipse;shape=umlControl;whiteSpace=wrap;html=1;" parent="1" vertex="1">
          <mxGeometry x="343.75" y="420" width="60" height="70" as="geometry" />
        </mxCell>
        <mxCell id="3N1-fSCp5UbAsF8w0CKT-33" value="" style="endArrow=classic;html=1;rounded=0;exitX=0.127;exitY=0.9;exitDx=0;exitDy=0;exitPerimeter=0;entryX=1.004;entryY=0.584;entryDx=0;entryDy=0;entryPerimeter=0;" parent="1" source="3N1-fSCp5UbAsF8w0CKT-28" target="3N1-fSCp5UbAsF8w0CKT-32" edge="1">
          <mxGeometry width="50" height="50" relative="1" as="geometry">
            <mxPoint x="400" y="450" as="sourcePoint" />
            <mxPoint x="450" y="400" as="targetPoint" />
          </mxGeometry>
        </mxCell>
        <mxCell id="3N1-fSCp5UbAsF8w0CKT-35" value="Οθόνη προεπισκόπισης Quiz" style="shape=umlBoundary;whiteSpace=wrap;html=1;" parent="1" vertex="1">
          <mxGeometry x="178" y="385" width="110" height="80" as="geometry" />
        </mxCell>
        <mxCell id="3N1-fSCp5UbAsF8w0CKT-37" value="" style="endArrow=classic;html=1;rounded=0;exitX=0.027;exitY=0.431;exitDx=0;exitDy=0;exitPerimeter=0;entryX=1.011;entryY=0.693;entryDx=0;entryDy=0;entryPerimeter=0;" parent="1" source="3N1-fSCp5UbAsF8w0CKT-32" target="3N1-fSCp5UbAsF8w0CKT-35" edge="1">
          <mxGeometry width="50" height="50" relative="1" as="geometry">
            <mxPoint x="400" y="410" as="sourcePoint" />
            <mxPoint x="450" y="360" as="targetPoint" />
          </mxGeometry>
        </mxCell>
        <mxCell id="3N1-fSCp5UbAsF8w0CKT-41" value="" style="endArrow=classic;html=1;rounded=0;exitX=0.55;exitY=0.602;exitDx=0;exitDy=0;exitPerimeter=0;entryX=-0.005;entryY=0.438;entryDx=0;entryDy=0;entryPerimeter=0;" parent="1" source="3N1-fSCp5UbAsF8w0CKT-1" target="3N1-fSCp5UbAsF8w0CKT-35" edge="1">
          <mxGeometry width="50" height="50" relative="1" as="geometry">
            <mxPoint x="400" y="420" as="sourcePoint" />
            <mxPoint x="146.79999999999995" y="382.55999999999995" as="targetPoint" />
          </mxGeometry>
        </mxCell>
        <mxCell id="3N1-fSCp5UbAsF8w0CKT-42" value="Επιβεβαιώνει" style="text;html=1;strokeColor=none;fillColor=none;align=center;verticalAlign=middle;whiteSpace=wrap;rounded=0;rotation=40;" parent="1" vertex="1">
          <mxGeometry x="102.5" y="323" width="60" height="30" as="geometry" />
        </mxCell>
        <mxCell id="3N1-fSCp5UbAsF8w0CKT-48" value="Quiz" style="ellipse;shape=umlEntity;whiteSpace=wrap;html=1;" parent="1" vertex="1">
          <mxGeometry x="333.75" y="700" width="70" height="70" as="geometry" />
        </mxCell>
        <mxCell id="3N1-fSCp5UbAsF8w0CKT-49" value="" style="endArrow=classic;html=1;rounded=0;exitX=0.561;exitY=1;exitDx=0;exitDy=0;exitPerimeter=0;entryX=0.5;entryY=0;entryDx=0;entryDy=0;" parent="1" source="joAMPXXjirfbNC7A_boK-7" target="3N1-fSCp5UbAsF8w0CKT-48" edge="1">
          <mxGeometry width="50" height="50" relative="1" as="geometry">
            <mxPoint x="366.9675000000002" y="639.8400000000001" as="sourcePoint" />
            <mxPoint x="450" y="530" as="targetPoint" />
          </mxGeometry>
        </mxCell>
        <mxCell id="3N1-fSCp5UbAsF8w0CKT-51" value="Εμφάνισε" style="ellipse;shape=umlControl;whiteSpace=wrap;html=1;" parent="1" vertex="1">
          <mxGeometry x="580" y="570" width="60" height="70" as="geometry" />
        </mxCell>
        <mxCell id="3N1-fSCp5UbAsF8w0CKT-52" value="" style="endArrow=classic;html=1;rounded=0;exitX=1.023;exitY=0.6;exitDx=0;exitDy=0;exitPerimeter=0;entryX=-0.067;entryY=0.542;entryDx=0;entryDy=0;entryPerimeter=0;" parent="1" source="joAMPXXjirfbNC7A_boK-7" edge="1" target="3N1-fSCp5UbAsF8w0CKT-51">
          <mxGeometry width="50" height="50" relative="1" as="geometry">
            <mxPoint x="407.1124999999997" y="610.2400000000002" as="sourcePoint" />
            <mxPoint x="400" y="610" as="targetPoint" />
          </mxGeometry>
        </mxCell>
        <mxCell id="3N1-fSCp5UbAsF8w0CKT-56" value="Λίστα ιστορικού ξεναγήσεων του χειριστή" style="shape=umlBoundary;whiteSpace=wrap;html=1;" parent="1" vertex="1">
          <mxGeometry x="565" y="820" width="100" height="80" as="geometry" />
        </mxCell>
        <mxCell id="3N1-fSCp5UbAsF8w0CKT-57" value="" style="endArrow=classic;html=1;rounded=0;exitX=0;exitY=1;exitDx=0;exitDy=0;exitPerimeter=0;entryX=-0.008;entryY=0.513;entryDx=0;entryDy=0;entryPerimeter=0;" parent="1" source="3N1-fSCp5UbAsF8w0CKT-1" target="3N1-fSCp5UbAsF8w0CKT-56" edge="1">
          <mxGeometry width="50" height="50" relative="1" as="geometry">
            <mxPoint x="400" y="600" as="sourcePoint" />
            <mxPoint x="450" y="550" as="targetPoint" />
            <Array as="points">
              <mxPoint x="40" y="861" />
            </Array>
          </mxGeometry>
        </mxCell>
        <mxCell id="3N1-fSCp5UbAsF8w0CKT-58" value="Επιλέγει ξενάγηση και επιβεβαιώνει" style="text;html=1;strokeColor=none;fillColor=none;align=center;verticalAlign=middle;whiteSpace=wrap;rounded=0;" parent="1" vertex="1">
          <mxGeometry x="192.5" y="810" width="87.5" height="30" as="geometry" />
        </mxCell>
        <mxCell id="HBEhMEMa0Hhf7PdMpufA-19" style="edgeStyle=orthogonalEdgeStyle;rounded=0;orthogonalLoop=1;jettySize=auto;html=1;entryX=1;entryY=0.5;entryDx=0;entryDy=0;" parent="1" source="3N1-fSCp5UbAsF8w0CKT-59" target="3N1-fSCp5UbAsF8w0CKT-48" edge="1">
          <mxGeometry relative="1" as="geometry" />
        </mxCell>
        <mxCell id="3N1-fSCp5UbAsF8w0CKT-59" value="Σύνδεσε&amp;nbsp; ξενάγηση με Quiz" style="ellipse;shape=umlControl;whiteSpace=wrap;html=1;" parent="1" vertex="1">
          <mxGeometry x="762.5" y="695" width="75" height="80" as="geometry" />
        </mxCell>
        <mxCell id="3N1-fSCp5UbAsF8w0CKT-60" value="" style="endArrow=classic;html=1;rounded=0;exitX=0.997;exitY=0.422;exitDx=0;exitDy=0;exitPerimeter=0;entryX=0.164;entryY=0.886;entryDx=0;entryDy=0;entryPerimeter=0;" parent="1" source="3N1-fSCp5UbAsF8w0CKT-56" target="3N1-fSCp5UbAsF8w0CKT-59" edge="1">
          <mxGeometry width="50" height="50" relative="1" as="geometry">
            <mxPoint x="400" y="600" as="sourcePoint" />
            <mxPoint x="740" y="770" as="targetPoint" />
          </mxGeometry>
        </mxCell>
        <mxCell id="3N1-fSCp5UbAsF8w0CKT-61" value="Ανάρτησε" style="ellipse;shape=umlControl;whiteSpace=wrap;html=1;" parent="1" vertex="1">
          <mxGeometry x="795" y="515" width="65" height="70" as="geometry" />
        </mxCell>
        <mxCell id="3N1-fSCp5UbAsF8w0CKT-63" value="Στείλε ειδοποίηση" style="ellipse;shape=umlControl;whiteSpace=wrap;html=1;" parent="1" vertex="1">
          <mxGeometry x="795" y="365" width="75" height="80" as="geometry" />
        </mxCell>
        <mxCell id="3N1-fSCp5UbAsF8w0CKT-64" value="" style="endArrow=classic;html=1;rounded=0;exitX=0.738;exitY=0.154;exitDx=0;exitDy=0;exitPerimeter=0;entryX=0.602;entryY=1.051;entryDx=0;entryDy=0;entryPerimeter=0;" parent="1" source="3N1-fSCp5UbAsF8w0CKT-61" target="3N1-fSCp5UbAsF8w0CKT-63" edge="1">
          <mxGeometry width="50" height="50" relative="1" as="geometry">
            <mxPoint x="400" y="410" as="sourcePoint" />
            <mxPoint x="843" y="450" as="targetPoint" />
          </mxGeometry>
        </mxCell>
        <mxCell id="3N1-fSCp5UbAsF8w0CKT-65" value="Χρήστης" style="ellipse;shape=umlEntity;whiteSpace=wrap;html=1;" parent="1" vertex="1">
          <mxGeometry x="662.5" y="395" width="60" height="60" as="geometry" />
        </mxCell>
        <mxCell id="3N1-fSCp5UbAsF8w0CKT-66" value="" style="endArrow=classic;html=1;rounded=0;exitX=0.005;exitY=0.747;exitDx=0;exitDy=0;exitPerimeter=0;entryX=1;entryY=0.5;entryDx=0;entryDy=0;" parent="1" source="3N1-fSCp5UbAsF8w0CKT-63" target="3N1-fSCp5UbAsF8w0CKT-65" edge="1">
          <mxGeometry width="50" height="50" relative="1" as="geometry">
            <mxPoint x="400" y="410" as="sourcePoint" />
            <mxPoint x="450" y="360" as="targetPoint" />
          </mxGeometry>
        </mxCell>
        <mxCell id="3N1-fSCp5UbAsF8w0CKT-71" value="Όχι" style="text;html=1;strokeColor=none;fillColor=none;align=center;verticalAlign=middle;whiteSpace=wrap;rounded=0;rotation=-45;" parent="1" vertex="1">
          <mxGeometry x="550" y="335" width="60" height="30" as="geometry" />
        </mxCell>
        <mxCell id="3N1-fSCp5UbAsF8w0CKT-73" value="Όχι" style="text;html=1;strokeColor=none;fillColor=none;align=center;verticalAlign=middle;whiteSpace=wrap;rounded=0;" parent="1" vertex="1">
          <mxGeometry x="640" y="15" width="60" height="30" as="geometry" />
        </mxCell>
        <mxCell id="dSofNj6T0etSp7xMZPN0-4" value="" style="endArrow=classic;html=1;rounded=0;exitX=0.747;exitY=0.179;exitDx=0;exitDy=0;exitPerimeter=0;entryX=0.399;entryY=0.99;entryDx=0;entryDy=0;entryPerimeter=0;" parent="1" source="3N1-fSCp5UbAsF8w0CKT-59" target="3N1-fSCp5UbAsF8w0CKT-61" edge="1">
          <mxGeometry width="50" height="50" relative="1" as="geometry">
            <mxPoint x="400" y="630" as="sourcePoint" />
            <mxPoint x="805" y="640" as="targetPoint" />
          </mxGeometry>
        </mxCell>
        <mxCell id="dSofNj6T0etSp7xMZPN0-7" value="Ξενάγηση" style="ellipse;shape=umlEntity;whiteSpace=wrap;html=1;" parent="1" vertex="1">
          <mxGeometry x="800" y="830" width="70" height="70" as="geometry" />
        </mxCell>
        <mxCell id="rQ5ok9m1OYFAO6wJ_XPL-1" value="Σελίδα δημιουργίας Quiz" style="shape=umlBoundary;whiteSpace=wrap;html=1;" parent="1" vertex="1">
          <mxGeometry x="167.5" y="-55" width="100" height="85" as="geometry" />
        </mxCell>
        <mxCell id="rQ5ok9m1OYFAO6wJ_XPL-2" value="" style="endArrow=classic;html=1;rounded=0;exitX=0.5;exitY=0;exitDx=0;exitDy=0;exitPerimeter=0;entryX=0.353;entryY=0.909;entryDx=0;entryDy=0;entryPerimeter=0;" parent="1" source="3N1-fSCp5UbAsF8w0CKT-1" target="rQ5ok9m1OYFAO6wJ_XPL-1" edge="1">
          <mxGeometry width="50" height="50" relative="1" as="geometry">
            <mxPoint x="400" y="250" as="sourcePoint" />
            <mxPoint x="450" y="200" as="targetPoint" />
          </mxGeometry>
        </mxCell>
        <mxCell id="rQ5ok9m1OYFAO6wJ_XPL-3" value="Επιλέγει δημιουργία Quiz" style="text;html=1;strokeColor=none;fillColor=none;align=center;verticalAlign=middle;whiteSpace=wrap;rounded=0;rotation=-50;" parent="1" vertex="1">
          <mxGeometry x="90" y="75" width="60" height="30" as="geometry" />
        </mxCell>
        <mxCell id="rQ5ok9m1OYFAO6wJ_XPL-4" value="Εμφάνισε" style="ellipse;shape=umlControl;whiteSpace=wrap;html=1;" parent="1" vertex="1">
          <mxGeometry x="310" y="-55" width="60" height="70" as="geometry" />
        </mxCell>
        <mxCell id="rQ5ok9m1OYFAO6wJ_XPL-5" value="" style="endArrow=classic;html=1;rounded=0;exitX=0.996;exitY=0.393;exitDx=0;exitDy=0;exitPerimeter=0;" parent="1" source="rQ5ok9m1OYFAO6wJ_XPL-1" target="rQ5ok9m1OYFAO6wJ_XPL-4" edge="1">
          <mxGeometry width="50" height="50" relative="1" as="geometry">
            <mxPoint x="400" y="230" as="sourcePoint" />
            <mxPoint x="450" y="180" as="targetPoint" />
          </mxGeometry>
        </mxCell>
        <mxCell id="rQ5ok9m1OYFAO6wJ_XPL-7" value="" style="endArrow=classic;html=1;rounded=0;exitX=0.42;exitY=1.003;exitDx=0;exitDy=0;exitPerimeter=0;entryX=0.586;entryY=0.008;entryDx=0;entryDy=0;entryPerimeter=0;" parent="1" source="rQ5ok9m1OYFAO6wJ_XPL-4" target="3N1-fSCp5UbAsF8w0CKT-2" edge="1">
          <mxGeometry width="50" height="50" relative="1" as="geometry">
            <mxPoint x="400" y="230" as="sourcePoint" />
            <mxPoint x="335" y="155" as="targetPoint" />
          </mxGeometry>
        </mxCell>
        <mxCell id="rQ5ok9m1OYFAO6wJ_XPL-8" value="" style="endArrow=classic;html=1;rounded=0;exitX=0.75;exitY=0.1;exitDx=0;exitDy=0;exitPerimeter=0;entryX=0.3;entryY=0.938;entryDx=0;entryDy=0;entryPerimeter=0;" parent="1" source="3N1-fSCp5UbAsF8w0CKT-1" target="3N1-fSCp5UbAsF8w0CKT-2" edge="1">
          <mxGeometry width="50" height="50" relative="1" as="geometry">
            <mxPoint x="400" y="230" as="sourcePoint" />
            <mxPoint x="450" y="180" as="targetPoint" />
          </mxGeometry>
        </mxCell>
        <mxCell id="rQ5ok9m1OYFAO6wJ_XPL-10" value="" style="endArrow=classic;html=1;rounded=0;entryX=0;entryY=0;entryDx=0;entryDy=0;exitX=0.74;exitY=1.001;exitDx=0;exitDy=0;exitPerimeter=0;" parent="1" source="3N1-fSCp5UbAsF8w0CKT-28" target="3N1-fSCp5UbAsF8w0CKT-30" edge="1">
          <mxGeometry width="50" height="50" relative="1" as="geometry">
            <mxPoint x="400" y="320" as="sourcePoint" />
            <mxPoint x="450" y="270" as="targetPoint" />
          </mxGeometry>
        </mxCell>
        <mxCell id="rQ5ok9m1OYFAO6wJ_XPL-12" value="" style="endArrow=classic;html=1;rounded=0;entryX=0.5;entryY=0;entryDx=0;entryDy=0;exitX=0.771;exitY=0.937;exitDx=0;exitDy=0;exitPerimeter=0;" parent="1" source="3N1-fSCp5UbAsF8w0CKT-59" target="dSofNj6T0etSp7xMZPN0-7" edge="1">
          <mxGeometry width="50" height="50" relative="1" as="geometry">
            <mxPoint x="400" y="650" as="sourcePoint" />
            <mxPoint x="450" y="600" as="targetPoint" />
          </mxGeometry>
        </mxCell>
        <mxCell id="V5MSWcHMXnMUiH3F6aYp-1" value="" style="endArrow=classic;html=1;rounded=0;strokeColor=#FF0000;exitX=0.02;exitY=0.711;exitDx=0;exitDy=0;exitPerimeter=0;entryX=0.885;entryY=0.075;entryDx=0;entryDy=0;entryPerimeter=0;" parent="1" source="HBEhMEMa0Hhf7PdMpufA-1" target="3N1-fSCp5UbAsF8w0CKT-2" edge="1">
          <mxGeometry width="50" height="50" relative="1" as="geometry">
            <mxPoint x="450" y="40" as="sourcePoint" />
            <mxPoint x="370" y="140" as="targetPoint" />
          </mxGeometry>
        </mxCell>
        <mxCell id="HBEhMEMa0Hhf7PdMpufA-1" value="Εμφάνισε" style="ellipse;shape=umlControl;whiteSpace=wrap;html=1;strokeColor=#FF0000;" parent="1" vertex="1">
          <mxGeometry x="420" y="10" width="60" height="70" as="geometry" />
        </mxCell>
        <mxCell id="HBEhMEMa0Hhf7PdMpufA-5" value="" style="endArrow=classic;html=1;rounded=0;entryX=0.204;entryY=0.791;entryDx=0;entryDy=0;strokeColor=#FF0000;entryPerimeter=0;" parent="1" source="HBEhMEMa0Hhf7PdMpufA-1" target="zh2mx8UxGJ5rzAvQ60WM-1" edge="1">
          <mxGeometry width="50" height="50" relative="1" as="geometry">
            <mxPoint x="400" y="170" as="sourcePoint" />
            <mxPoint x="580" as="targetPoint" />
          </mxGeometry>
        </mxCell>
        <mxCell id="HBEhMEMa0Hhf7PdMpufA-6" value="Εμφάνισε" style="ellipse;shape=umlControl;whiteSpace=wrap;html=1;strokeColor=#FF0000;" parent="1" vertex="1">
          <mxGeometry x="620" y="270" width="60" height="70" as="geometry" />
        </mxCell>
        <mxCell id="HBEhMEMa0Hhf7PdMpufA-7" value="" style="endArrow=classic;html=1;rounded=0;exitX=0.9;exitY=0.273;exitDx=0;exitDy=0;exitPerimeter=0;entryX=0.137;entryY=0.937;entryDx=0;entryDy=0;entryPerimeter=0;strokeColor=#FF0000;" parent="1" source="3N1-fSCp5UbAsF8w0CKT-28" target="HBEhMEMa0Hhf7PdMpufA-6" edge="1">
          <mxGeometry width="50" height="50" relative="1" as="geometry">
            <mxPoint x="400" y="290" as="sourcePoint" />
            <mxPoint x="450" y="240" as="targetPoint" />
          </mxGeometry>
        </mxCell>
        <mxCell id="HBEhMEMa0Hhf7PdMpufA-8" value="" style="endArrow=classic;html=1;rounded=0;entryX=0.997;entryY=0.547;entryDx=0;entryDy=0;entryPerimeter=0;strokeColor=#FF0000;exitX=-0.023;exitY=0.45;exitDx=0;exitDy=0;exitPerimeter=0;" parent="1" source="HBEhMEMa0Hhf7PdMpufA-6" target="3N1-fSCp5UbAsF8w0CKT-24" edge="1">
          <mxGeometry width="50" height="50" relative="1" as="geometry">
            <mxPoint x="640" y="283" as="sourcePoint" />
            <mxPoint x="450" y="240" as="targetPoint" />
          </mxGeometry>
        </mxCell>
        <mxCell id="TlQZnDpSAN_-_JsgQKPj-14" value="" style="endArrow=classic;html=1;rounded=0;entryX=0.844;entryY=0.951;entryDx=0;entryDy=0;strokeColor=#FF0000;exitX=0.247;exitY=0.194;exitDx=0;exitDy=0;exitPerimeter=0;entryPerimeter=0;" parent="1" source="3N1-fSCp5UbAsF8w0CKT-6" target="zh2mx8UxGJ5rzAvQ60WM-1" edge="1">
          <mxGeometry width="50" height="50" relative="1" as="geometry">
            <mxPoint x="610" y="110" as="sourcePoint" />
            <mxPoint x="610" y="30" as="targetPoint" />
          </mxGeometry>
        </mxCell>
        <mxCell id="TlQZnDpSAN_-_JsgQKPj-16" value="" style="endArrow=classic;html=1;rounded=0;exitX=0.524;exitY=0.983;exitDx=0;exitDy=0;exitPerimeter=0;entryX=0.971;entryY=0.712;entryDx=0;entryDy=0;entryPerimeter=0;" parent="1" source="3N1-fSCp5UbAsF8w0CKT-6" target="3N1-fSCp5UbAsF8w0CKT-21" edge="1">
          <mxGeometry width="50" height="50" relative="1" as="geometry">
            <mxPoint x="360" y="330" as="sourcePoint" />
            <mxPoint x="410" y="280" as="targetPoint" />
          </mxGeometry>
        </mxCell>
        <mxCell id="TlQZnDpSAN_-_JsgQKPj-22" value="Ναί" style="text;html=1;strokeColor=none;fillColor=none;align=center;verticalAlign=middle;whiteSpace=wrap;rounded=0;rotation=0;" parent="1" vertex="1">
          <mxGeometry x="425" y="417.5" width="60" height="30" as="geometry" />
        </mxCell>
        <mxCell id="TlQZnDpSAN_-_JsgQKPj-23" value="Μήνυμα μη επιτρεπτού μεγέθους" style="shape=umlBoundary;whiteSpace=wrap;html=1;strokeColor=#FF0000;" parent="1" vertex="1">
          <mxGeometry x="732.5" y="195" width="100" height="80" as="geometry" />
        </mxCell>
        <mxCell id="TlQZnDpSAN_-_JsgQKPj-24" value="" style="endArrow=classic;html=1;rounded=0;entryX=0.404;entryY=0.967;entryDx=0;entryDy=0;entryPerimeter=0;strokeColor=#FF0000;" parent="1" source="HBEhMEMa0Hhf7PdMpufA-6" target="TlQZnDpSAN_-_JsgQKPj-23" edge="1">
          <mxGeometry width="50" height="50" relative="1" as="geometry">
            <mxPoint x="140" y="440" as="sourcePoint" />
            <mxPoint x="190" y="390" as="targetPoint" />
          </mxGeometry>
        </mxCell>
        <mxCell id="TlQZnDpSAN_-_JsgQKPj-28" value="" style="endArrow=classic;html=1;rounded=0;exitX=0.526;exitY=0.978;exitDx=0;exitDy=0;exitPerimeter=0;entryX=0.01;entryY=0.347;entryDx=0;entryDy=0;entryPerimeter=0;" parent="1" source="3N1-fSCp5UbAsF8w0CKT-35" target="joAMPXXjirfbNC7A_boK-7" edge="1">
          <mxGeometry width="50" height="50" relative="1" as="geometry">
            <mxPoint x="90" y="600" as="sourcePoint" />
            <mxPoint x="198" y="567.44" as="targetPoint" />
          </mxGeometry>
        </mxCell>
        <mxCell id="zh2mx8UxGJ5rzAvQ60WM-1" value="Μήνυμα έλλειψης" style="shape=umlBoundary;whiteSpace=wrap;html=1;strokeColor=#FF0000;" parent="1" vertex="1">
          <mxGeometry x="550" y="-60" width="90" height="70" as="geometry" />
        </mxCell>
        <mxCell id="jr0c6EElStf809zkfGbC-3" value="" style="endArrow=classic;html=1;rounded=0;exitX=0.567;exitY=1.03;exitDx=0;exitDy=0;exitPerimeter=0;" parent="1" source="3N1-fSCp5UbAsF8w0CKT-51" target="3N1-fSCp5UbAsF8w0CKT-56" edge="1">
          <mxGeometry width="50" height="50" relative="1" as="geometry">
            <mxPoint x="420" y="730" as="sourcePoint" />
            <mxPoint x="470" y="680" as="targetPoint" />
          </mxGeometry>
        </mxCell>
        <mxCell id="RxN8SiHH1sJUAyi145NA-1" value="Εμφάνισε" style="ellipse;shape=umlControl;whiteSpace=wrap;html=1;" parent="1" vertex="1">
          <mxGeometry x="930" y="515" width="60" height="70" as="geometry" />
        </mxCell>
        <mxCell id="RxN8SiHH1sJUAyi145NA-3" value="Μήνυμα επιτυχίας" style="shape=umlBoundary;whiteSpace=wrap;html=1;" parent="1" vertex="1">
          <mxGeometry x="940" y="420" width="80" height="65" as="geometry" />
        </mxCell>
        <mxCell id="RxN8SiHH1sJUAyi145NA-4" value="" style="endArrow=classic;html=1;rounded=0;entryX=0.618;entryY=0.989;entryDx=0;entryDy=0;entryPerimeter=0;exitX=0.96;exitY=0.374;exitDx=0;exitDy=0;exitPerimeter=0;" parent="1" source="RxN8SiHH1sJUAyi145NA-1" target="RxN8SiHH1sJUAyi145NA-3" edge="1">
          <mxGeometry width="50" height="50" relative="1" as="geometry">
            <mxPoint x="830" y="640" as="sourcePoint" />
            <mxPoint x="880" y="590" as="targetPoint" />
          </mxGeometry>
        </mxCell>
        <mxCell id="joAMPXXjirfbNC7A_boK-1" value="" style="endArrow=classic;html=1;rounded=0;" edge="1" parent="1">
          <mxGeometry width="50" height="50" relative="1" as="geometry">
            <mxPoint x="860" y="560" as="sourcePoint" />
            <mxPoint x="930" y="560" as="targetPoint" />
          </mxGeometry>
        </mxCell>
        <mxCell id="joAMPXXjirfbNC7A_boK-6" value="" style="endArrow=classic;html=1;rounded=0;exitX=1.013;exitY=0.581;exitDx=0;exitDy=0;exitPerimeter=0;entryX=0.048;entryY=0.769;entryDx=0;entryDy=0;entryPerimeter=0;" edge="1" parent="1" source="3N1-fSCp5UbAsF8w0CKT-2" target="3N1-fSCp5UbAsF8w0CKT-6">
          <mxGeometry width="50" height="50" relative="1" as="geometry">
            <mxPoint x="540" y="410" as="sourcePoint" />
            <mxPoint x="590" y="360" as="targetPoint" />
          </mxGeometry>
        </mxCell>
        <mxCell id="joAMPXXjirfbNC7A_boK-7" value="Καταχώρησε" style="ellipse;shape=umlControl;whiteSpace=wrap;html=1;" vertex="1" parent="1">
          <mxGeometry x="323.75" y="560" width="80" height="80" as="geometry" />
        </mxCell>
        <mxCell id="joAMPXXjirfbNC7A_boK-8" value="" style="endArrow=classic;html=1;rounded=0;entryX=0.841;entryY=0.28;entryDx=0;entryDy=0;entryPerimeter=0;exitX=0;exitY=0.5;exitDx=0;exitDy=0;" edge="1" parent="1" source="3N1-fSCp5UbAsF8w0CKT-30" target="joAMPXXjirfbNC7A_boK-7">
          <mxGeometry width="50" height="50" relative="1" as="geometry">
            <mxPoint x="430" y="550" as="sourcePoint" />
            <mxPoint x="590" y="550" as="targetPoint" />
          </mxGeometry>
        </mxCell>
      </root>
    </mxGraphModel>
  </diagram>
</mxfile>
